# xmcd
#
# Track frame offsets: 
#        150
#        25594
#        52732
#        87535
#        138367
#        165597
#        175902
#
# Disc length: 2732 seconds
#
# Revision: 1
# Processed by: cddbd v1.5.2PL0 Copyright (c) Steve Scherf et al.
# Submitted via: ExactAudioCopy v0.99pb4
#
DISCID=4d0aaa07
DTITLE=Bill Bruford - An Introduction to Winterfold Records
DYEAR=2005
DGENRE=Jazz
TTITLE0=Hell's Bells
TTITLE1=Beelzebub
TTITLE2=One Of A Kind
TTITLE3=Joe Frazier
TTITLE4=Living Space
TTITLE5=The Drum
TTITLE6=Fainting
EXTD=
EXTT0=
EXTT1=
EXTT2=
EXTT3=
EXTT4=
EXTT5=
EXTT6=
PLAYORDER=
